# xmcd
#
# Track frame offsets:
#	150
#	14930
#	31177
#	46452
#	59870
#	72982
#	84767
#	99040
#	113152
#	126575
#	141190
#	154452
#
# Disc length: 2257 seconds
#
# Revision: 0
# Processed by: cddbd v1.5.2PL0 Copyright (c) Steve Scherf et al.
# Submitted via: EasyCDDAExtractor 10.2.0.1
#
DISCID=ac08cf0c
DTITLE=Jim and Jesse - I'm Gonna Sing, Sing, Sing
DYEAR=1900
DGENRE=Bluegrass
TTITLE0=A Beautiful Life
TTITLE1=Ashamed To Own The Blessed Savior
TTITLE2=Who Will Sing For me
TTITLE3=Glory To His Name
TTITLE4=Gone Home
TTITLE5=I'm Gonna Sing, Sing, Sing
TTITLE6=Coming Down From God
TTITLE7=I'm Using My Bible For A Roadmap
TTITLE8=Gathering Flowers For The Master's Bouquet
TTITLE9=Looking Through The Windows Of Heaven
TTITLE10=Give me The Roses While I Live
TTITLE11=On The Jericho Road
EXTD=
EXTT0=
EXTT1=
EXTT2=
EXTT3=
EXTT4=
EXTT5=
EXTT6=
EXTT7=
EXTT8=
EXTT9=
EXTT10=
EXTT11=
PLAYORDER=
